<?xml version="1.0" standalone="no"?>
<!DOCTYPE svg PUBLIC "-//W3C//DTD SVG 20010904//EN"
 "http://www.w3.org/TR/2001/REC-SVG-20010904/DTD/svg10.dtd">
<svg version="1.0" xmlns="http://www.w3.org/2000/svg"
 width="300.000000pt" height="300.000000pt" viewBox="0 0 300.000000 300.000000"
 preserveAspectRatio="xMidYMid meet">
<metadata>
Created by potrace 1.10, written by Peter Selinger 2001-2011
</metadata>
<g transform="translate(0.000000,300.000000) scale(0.100000,-0.100000)"
fill="#000000" stroke="none">
<path d="M2090 1968 l-25 -14 -8 -324 c-9 -352 -5 -395 36 -405 13 -4 50 -5
82 -3 52 3 61 6 72 28 17 33 14 693 -3 710 -18 18 -125 23 -154 8z m140 -368
l0 -355 -75 0 -75 -1 0 351 c0 194 2 354 4 356 3 2 36 4 75 4 l71 0 0 -355z"/>
<path d="M120 1760 c-19 -19 -20 -33 -20 -370 l0 -349 22 -21 c22 -20 31 -21
213 -18 208 3 236 10 297 75 75 79 80 225 11 305 -13 15 -12 21 12 61 50 86
29 206 -48 274 -58 51 -117 63 -304 63 -150 0 -165 -2 -183 -20z m415 -39 c69
-32 115 -102 115 -174 0 -43 -39 -119 -67 -132 -30 -13 -29 -17 7 -37 18 -10
39 -36 50 -60 46 -101 5 -213 -95 -259 -34 -16 -67 -19 -227 -19 l-188 0 0
350 0 350 183 0 c156 0 188 -3 222 -19z"/>
<path d="M270 1540 l0 -80 93 0 c100 1 119 8 137 54 13 35 -4 75 -40 93 -14 7
-61 13 -107 13 l-83 0 0 -80z m171 30 c21 -12 25 -40 7 -58 -7 -7 -38 -12 -69
-12 -49 0 -59 3 -64 20 -3 11 -3 29 0 40 5 16 15 20 56 20 28 0 59 -5 70 -10z"/>
<path d="M270 1245 l0 -85 94 0 c85 0 98 2 122 24 21 18 28 32 28 61 0 29 -7
43 -28 61 -24 22 -37 24 -122 24 l-94 0 0 -85z m188 33 c18 -18 14 -56 -7 -68
-32 -17 -128 -13 -135 6 -8 21 -8 59 1 67 11 12 128 8 141 -5z"/>
<path d="M721 1757 c-27 -30 -29 -25 94 -258 l95 -180 0 -135 c0 -130 1 -136
25 -159 20 -21 34 -25 83 -25 44 0 66 5 83 19 23 18 24 27 29 168 l5 148 69
130 c38 72 82 154 97 183 53 98 31 132 -81 132 -59 0 -69 -3 -92 -27 -15 -16
-42 -62 -61 -104 -19 -42 -39 -79 -44 -82 -5 -3 -29 35 -54 85 -56 115 -72
128 -159 128 -57 0 -70 -3 -89 -23z m103 -17 l63 0 61 -129 c34 -71 62 -134
62 -140 0 -6 5 -11 10 -11 6 0 10 4 10 10 0 5 27 67 59 137 l59 128 79 5 c43
3 79 5 81 4 1 0 -47 -95 -108 -210 l-110 -208 0 -143 0 -143 -70 0 -70 0 0
141 0 142 -110 208 c-60 114 -110 211 -110 215 0 3 7 3 16 0 9 -3 44 -6 78 -6z"/>
<path d="M1393 1758 c-23 -24 -23 -25 -23 -369 l0 -346 24 -22 c23 -22 29 -22
212 -19 162 3 194 6 228 22 137 69 175 228 83 359 -10 14 -8 24 9 55 64 112
26 244 -88 308 -52 29 -55 29 -238 32 -184 4 -185 4 -207 -20z m423 -42 c61
-28 95 -77 102 -146 6 -65 -12 -114 -56 -150 -24 -19 -31 -30 -20 -30 20 0 76
-63 84 -96 12 -48 -1 -131 -28 -172 -46 -69 -75 -77 -300 -80 l-198 -3 0 350
0 351 183 0 c170 0 185 -2 233 -24z"/>
<path d="M1550 1540 l0 -80 90 0 c83 0 93 2 115 25 33 33 32 70 -4 106 -28 28
-34 29 -115 29 l-86 0 0 -80z m181 19 c23 -36 -8 -59 -82 -59 l-59 0 0 33 c0
19 3 37 8 41 12 13 123 1 133 -15z"/>
<path d="M1550 1245 l0 -85 91 0 c88 0 92 1 121 30 26 27 30 36 25 68 -10 60
-34 72 -143 72 l-94 0 0 -85z m184 29 c41 -40 1 -76 -80 -72 l-59 3 -3 43 -3
42 65 0 c45 0 69 -5 80 -16z"/>
<path d="M2340 1760 c-16 -16 -20 -33 -20 -80 0 -83 18 -100 105 -100 59 0 65
-2 70 -22 3 -13 6 -135 7 -271 3 -248 3 -249 27 -268 17 -14 39 -19 85 -19 52
0 66 4 84 23 21 23 22 30 22 278 0 185 3 258 12 267 7 7 39 12 73 12 82 0 105
22 105 101 0 45 -4 60 -23 77 -23 21 -30 22 -275 22 -239 0 -253 -1 -272 -20z
m534 -79 l1 -61 -95 0 -95 0 3 -290 4 -290 -76 0 -76 0 0 290 0 290 -95 0 -95
0 0 60 0 60 258 2 c141 2 259 2 261 1 2 -1 4 -29 5 -62z"/>
</g>
</svg>
