<?xml version="1.0" standalone="no"?>
<!DOCTYPE svg PUBLIC "-//W3C//DTD SVG 20010904//EN"
 "http://www.w3.org/TR/2001/REC-SVG-20010904/DTD/svg10.dtd">
<svg version="1.0" xmlns="http://www.w3.org/2000/svg"
 width="300.000000pt" height="116.000000pt" viewBox="0 0 300.000000 116.000000"
 preserveAspectRatio="xMidYMid meet">
<metadata>
Created by potrace 1.10, written by Peter Selinger 2001-2011
</metadata>
<g transform="translate(0.000000,116.000000) scale(0.100000,-0.100000)"
fill="#000000" stroke="none">
<path d="M2258 928 c-2 -128 -2 -235 0 -238 2 -2 19 13 37 35 l34 40 1 198 0
197 -35 0 -34 0 -3 -232z"/>
<path d="M2388 980 c-2 -99 -1 -180 1 -180 3 0 20 10 38 23 l33 22 0 158 0
157 -35 0 -34 0 -3 -180z"/>
<path d="M371 965 c-179 -51 -344 -221 -358 -372 -4 -47 -4 -48 14 -27 18 20
18 18 18 -72 0 -90 -1 -92 -19 -76 -18 17 -19 15 -13 -38 15 -125 122 -267
250 -330 78 -38 164 -53 154 -26 -6 14 3 16 65 16 64 0 69 -1 57 -17 -13 -15
-9 -16 44 -10 68 7 154 44 214 93 l43 35 0 205 0 204 -196 0 -195 0 3 -36 3
-36 153 1 152 2 0 -158 0 -158 -33 -22 c-75 -51 -192 -75 -308 -62 -124 13
-244 100 -302 218 -31 63 -32 71 -32 186 0 110 2 125 27 178 53 114 179 210
310 238 74 16 215 6 274 -20 26 -12 48 -21 50 -21 2 0 4 19 4 43 0 41 -2 44
-37 56 -61 20 -278 24 -342 6z"/>
<path d="M413 845 c-113 -31 -192 -91 -244 -187 -33 -60 -34 -67 -34 -168 0
-96 2 -110 29 -163 35 -68 108 -140 174 -170 39 -18 65 -22 152 -22 93 0 112
3 163 27 l57 27 0 115 0 116 -130 0 -130 0 0 -35 0 -35 95 0 95 0 0 -59 0 -59
-44 -11 c-58 -14 -158 -14 -208 1 -55 16 -126 83 -154 143 -34 73 -34 182 2
253 48 96 138 152 259 160 87 5 173 -11 219 -43 l36 -24 0 48 c0 48 -1 48 -42
64 -100 37 -209 45 -295 22z"/>
<path d="M1171 815 c-59 -19 -143 -78 -175 -123 -14 -20 -35 -59 -48 -87 -22
-47 -23 -64 -26 -317 l-4 -268 41 0 40 0 3 268 3 267 27 51 c51 96 138 147
253 147 41 0 85 -6 105 -15 35 -15 36 -14 61 13 21 23 24 31 13 40 -45 37
-208 50 -293 24z"/>
<path d="M1648 815 c-51 -17 -131 -73 -172 -122 -14 -17 -39 -58 -54 -90 -25
-53 -27 -68 -27 -173 1 -151 22 -207 110 -295 79 -79 147 -108 255 -109 95 0
120 12 120 61 0 32 -2 35 -22 28 -54 -16 -127 -17 -183 0 -46 13 -69 28 -114
73 -69 69 -91 128 -91 243 0 141 54 235 167 291 119 58 246 35 336 -61 76 -81
82 -109 82 -393 l0 -248 38 0 38 0 -3 268 c-3 264 -3 268 -29 322 -39 81 -99
144 -175 181 -55 27 -80 33 -147 36 -53 2 -98 -3 -129 -12z"/>
<path d="M2518 814 c-68 -24 -172 -107 -260 -209 l-78 -90 0 -59 c0 -33 4 -56
8 -50 4 5 34 41 65 80 31 39 95 107 140 151 95 91 151 117 249 117 109 -1 227
-87 262 -191 10 -30 16 -81 16 -143 0 -88 -3 -102 -31 -158 -86 -172 -305
-215 -447 -87 -29 27 -58 64 -69 90 -10 25 -20 45 -23 44 -3 0 -16 -14 -29
-30 -23 -30 -23 -30 -5 -70 25 -57 112 -133 182 -160 79 -30 187 -30 264 0 78
30 159 105 197 183 34 66 43 141 16 118 -13 -11 -15 -2 -15 75 0 73 2 86 15
81 24 -9 19 51 -9 109 -36 77 -98 140 -174 177 -56 28 -79 33 -147 35 -53 2
-96 -3 -127 -13z"/>
<path d="M1180 676 c-52 -26 -105 -90 -120 -144 -5 -21 -10 -142 -10 -274 l0
-238 40 0 39 0 3 254 c3 241 4 256 24 283 41 55 116 80 184 61 22 -6 27 -2 42
28 16 35 16 35 -9 45 -46 17 -145 10 -193 -15z"/>
<path d="M1665 681 c-51 -23 -118 -98 -133 -149 -7 -22 -12 -69 -12 -104 0
-116 42 -194 132 -243 62 -34 143 -38 196 -11 28 14 32 22 32 56 l0 39 -46
-21 c-83 -36 -160 -14 -212 63 -21 31 -23 43 -20 124 2 75 7 95 26 123 31 43
75 64 133 64 58 0 105 -25 136 -72 22 -32 23 -40 23 -281 l0 -249 40 0 40 0 0
248 c0 238 -1 249 -24 297 -25 55 -69 98 -123 120 -49 21 -139 19 -188 -4z"/>
<path d="M2532 674 c-55 -27 -173 -145 -288 -287 -63 -78 -64 -80 -64 -140 l1
-62 22 30 c103 139 290 350 338 382 76 50 175 29 226 -47 20 -28 23 -46 23
-120 0 -74 -3 -92 -22 -120 -50 -73 -131 -99 -198 -62 -44 24 -96 99 -105 153
l-7 41 -29 -34 c-34 -40 -35 -56 -8 -111 57 -114 162 -165 274 -132 68 19 121
65 151 130 31 66 33 199 5 260 -58 126 -200 179 -319 119z"/>
</g>
</svg>
