<?xml version="1.0" standalone="no"?>
<!DOCTYPE svg PUBLIC "-//W3C//DTD SVG 20010904//EN"
 "http://www.w3.org/TR/2001/REC-SVG-20010904/DTD/svg10.dtd">
<svg version="1.0" xmlns="http://www.w3.org/2000/svg"
 width="222.000000pt" height="227.000000pt" viewBox="0 0 222.000000 227.000000"
 preserveAspectRatio="xMidYMid meet">
<metadata>
Created by potrace 1.10, written by Peter Selinger 2001-2011
</metadata>
<g transform="translate(0.000000,227.000000) scale(0.100000,-0.100000)"
fill="#000000" stroke="none">
<path d="M233 2103 c9 -2 17 -11 17 -18 0 -7 -8 -16 -17 -18 -14 -4 -12 -5 5
-6 17 -1 22 4 22 24 0 20 -5 25 -22 24 -17 -1 -19 -2 -5 -6z"/>
<path d="M320 2101 c0 -5 9 -7 20 -4 14 4 20 0 20 -12 0 -12 -6 -16 -20 -12
-11 3 -20 1 -20 -4 0 -5 11 -9 25 -9 20 0 25 5 25 25 0 20 -5 25 -25 25 -14 0
-25 -4 -25 -9z"/>
<path d="M530 2085 c0 -20 5 -25 25 -25 14 0 25 4 25 9 0 5 -9 7 -20 4 -14 -4
-20 0 -20 12 0 12 6 16 20 12 11 -3 20 -1 20 4 0 5 -11 9 -25 9 -20 0 -25 -5
-25 -25z"/>
<path d="M640 2101 c0 -5 9 -7 20 -4 14 4 20 0 20 -10 0 -9 -10 -18 -22 -20
-20 -4 -19 -4 5 -6 23 -1 27 3 27 24 0 20 -5 25 -25 25 -14 0 -25 -4 -25 -9z"/>
<path d="M850 2085 c0 -20 5 -25 25 -25 20 0 25 5 25 25 0 20 -5 25 -25 25
-20 0 -25 -5 -25 -25z"/>
<path d="M1060 2085 c0 -21 4 -25 28 -24 23 2 24 2 5 6 -13 2 -23 11 -23 18 0
7 10 16 23 18 19 4 18 4 -5 6 -24 1 -28 -3 -28 -24z"/>
<path d="M1170 2085 c0 -20 5 -25 25 -25 20 0 25 5 25 25 0 20 -5 25 -25 25
-20 0 -25 -5 -25 -25z"/>
<path d="M160 1925 c0 -20 5 -25 25 -25 20 0 25 5 25 25 0 14 -4 25 -9 25 -5
0 -7 -9 -4 -20 4 -14 0 -20 -12 -20 -12 0 -16 6 -12 20 3 11 1 20 -4 20 -5 0
-9 -11 -9 -25z"/>
<path d="M370 1925 c0 -20 -5 -25 -25 -25 -14 0 -25 -4 -25 -9 0 -5 9 -7 19
-4 14 4 21 -1 24 -19 4 -21 4 -20 6 5 1 22 6 27 26 27 20 0 25 5 25 25 0 14
-4 25 -9 25 -5 0 -7 -9 -4 -20 4 -14 0 -20 -12 -20 -12 0 -16 6 -12 20 3 11 1
20 -4 20 -5 0 -9 -11 -9 -25z"/>
<path d="M690 1925 c0 -20 -5 -25 -25 -25 -14 0 -25 -4 -25 -9 0 -5 9 -7 19
-4 14 4 21 -1 24 -19 4 -21 4 -20 6 5 1 22 6 27 26 27 20 0 25 5 25 25 0 14
-4 25 -9 25 -5 0 -7 -9 -4 -20 4 -14 0 -20 -12 -20 -12 0 -16 6 -12 20 3 11 1
20 -4 20 -5 0 -9 -11 -9 -25z"/>
<path d="M1045 1925 c0 -14 3 -25 8 -25 4 0 7 -11 7 -25 0 -17 5 -25 18 -24
10 0 12 3 5 6 -21 8 -15 31 10 36 19 4 18 4 -5 6 -23 1 -28 6 -28 26 0 14 -3
25 -7 25 -5 0 -8 -11 -8 -25z"/>
<path d="M1540 1926 c0 -21 6 -25 49 -31 40 -5 51 -11 54 -28 3 -18 5 -17 6 6
1 24 -3 27 -29 27 -25 0 -30 4 -30 25 0 14 -4 25 -9 25 -5 0 -7 -9 -4 -20 4
-14 0 -20 -12 -20 -12 0 -16 6 -12 20 3 11 1 20 -4 20 -5 0 -9 -11 -9 -24z"/>
<path d="M1798 1928 c4 -18 2 -20 -16 -16 -12 4 -22 3 -22 -2 0 -9 89 -24 98
-16 3 3 -7 6 -21 6 -22 0 -27 5 -27 25 0 14 -4 25 -9 25 -5 0 -7 -10 -3 -22z"/>
<path d="M1970 1925 c0 -20 -5 -25 -27 -25 -14 0 -24 -3 -21 -6 4 -3 27 -2 52
1 40 6 46 10 46 31 0 13 -4 24 -9 24 -5 0 -7 -9 -4 -20 4 -14 0 -20 -12 -20
-12 0 -16 6 -12 20 3 11 1 20 -4 20 -5 0 -9 -11 -9 -25z"/>
<path d="M1218 1907 c-41 -9 -48 -14 -48 -34 0 -13 4 -23 9 -23 5 0 7 9 4 20
-4 14 0 20 12 20 12 0 16 -6 12 -20 -3 -11 -1 -20 4 -20 5 0 9 11 9 25 0 20 5
25 25 25 14 0 25 5 25 10 0 6 -1 9 -2 9 -2 -1 -24 -6 -50 -12z"/>
<path d="M1330 1908 c0 -4 11 -8 25 -8 20 0 25 -5 25 -25 0 -14 4 -25 9 -25 5
0 7 9 4 20 -6 22 22 29 30 8 4 -9 6 -8 6 3 1 10 -14 18 -49 25 -27 6 -50 7
-50 2z"/>
<path d="M530 1875 c0 -20 5 -25 25 -25 14 0 25 4 25 9 0 5 -9 7 -20 4 -14 -4
-20 0 -20 10 0 9 10 18 23 20 19 4 18 4 -5 6 -24 1 -28 -3 -28 -24z"/>
<path d="M850 1875 c0 -14 4 -25 9 -25 5 0 7 9 4 20 -4 14 0 20 12 20 12 0 16
-6 12 -20 -3 -11 -1 -20 4 -20 5 0 9 11 9 25 0 20 -5 25 -25 25 -20 0 -25 -5
-25 -25z"/>
<path d="M160 1715 c0 -20 5 -25 25 -25 20 0 25 5 25 25 0 20 -5 25 -25 25
-20 0 -25 -5 -25 -25z"/>
<path d="M370 1715 c0 -20 5 -25 25 -25 20 0 25 5 25 25 0 20 -5 25 -25 25
-20 0 -25 -5 -25 -25z"/>
<path d="M684 1690 c-6 -27 -7 -50 -2 -50 4 0 8 11 8 25 0 20 5 25 25 25 14 0
25 4 25 9 0 5 -10 7 -22 3 -18 -4 -20 -2 -16 16 4 12 3 22 -1 22 -4 0 -12 -22
-17 -50z"/>
<path d="M1010 1731 c0 -5 9 -7 20 -4 14 4 20 0 20 -12 0 -12 -6 -16 -20 -12
-11 3 -20 1 -20 -4 0 -5 11 -9 25 -9 20 0 25 5 25 25 0 20 -5 25 -25 25 -14 0
-25 -4 -25 -9z"/>
<path d="M1330 1731 c0 -5 9 -7 20 -4 14 4 20 0 20 -12 0 -12 -6 -16 -20 -12
-11 3 -20 1 -20 -4 0 -5 11 -9 25 -9 20 0 25 5 25 25 0 20 -5 25 -25 25 -14 0
-25 -4 -25 -9z"/>
<path d="M1540 1715 c0 -20 5 -25 25 -25 20 0 25 5 25 25 0 20 -5 25 -25 25
-20 0 -25 -5 -25 -25z"/>
<path d="M1760 1731 c0 -5 9 -7 20 -4 14 4 20 0 20 -12 0 -12 -6 -16 -20 -12
-11 3 -20 1 -20 -4 0 -5 11 -9 25 -9 20 0 25 5 25 25 0 20 -5 25 -25 25 -14 0
-25 -4 -25 -9z"/>
<path d="M1970 1715 c0 -20 5 -25 25 -25 20 0 25 5 25 25 0 20 -5 25 -25 25
-20 0 -25 -5 -25 -25z"/>
<path d="M1794 1580 c-85 -22 -160 -58 -209 -101 -19 -17 -35 -26 -35 -20 0 6
-11 16 -24 23 -20 9 -58 2 -218 -42 -214 -58 -243 -73 -235 -126 5 -30 5 -30
-41 -30 -37 -1 -215 -44 -375 -90 -10 -3 -23 -16 -29 -29 -11 -24 -11 -24 -42
-7 -43 23 -190 22 -271 -2 -208 -62 -312 -195 -263 -337 18 -55 47 -88 101
-117 47 -24 61 -27 152 -26 80 1 115 7 174 28 89 31 163 77 193 119 l22 31 8
-33 c14 -52 44 -59 141 -31 92 26 108 36 110 73 l2 26 23 -22 c29 -27 66 -26
172 10 68 22 86 32 88 49 3 19 27 28 194 75 171 48 193 57 207 81 12 21 21 26
36 21 37 -11 159 -5 224 12 180 46 287 148 285 270 -2 168 -171 253 -390 195z
m249 -54 c54 -26 80 -69 85 -135 3 -46 0 -62 -20 -91 -37 -54 -102 -97 -190
-125 -149 -47 -243 -43 -309 12 -110 93 -59 242 108 314 118 50 252 61 326 25z
m-520 -125 c4 -18 5 -37 0 -41 -4 -4 -51 -18 -103 -30 -52 -13 -99 -27 -103
-31 -5 -4 -4 -16 2 -27 11 -20 11 -20 88 4 43 13 82 24 86 24 4 0 15 -16 23
-36 15 -37 9 -53 -20 -54 -29 0 -146 -43 -146 -53 1 -35 15 -35 115 -6 55 16
104 28 108 26 5 -1 15 -17 23 -35 13 -31 12 -33 -9 -41 -66 -25 -358 -103
-369 -98 -12 4 -98 285 -98 319 0 9 61 30 183 65 100 28 188 50 196 49 8 0 19
-16 24 -35z m-418 -196 c34 -34 33 -76 -5 -118 l-30 -34 60 -47 c33 -26 60
-51 60 -56 0 -9 -74 -34 -137 -46 -33 -6 -39 -3 -104 62 -71 71 -80 84 -54 84
30 0 75 30 75 51 0 26 -20 33 -75 25 -55 -9 -56 -13 -15 -155 16 -58 29 -106
27 -107 -4 -3 -139 -44 -147 -44 -10 0 -93 297 -87 313 5 17 293 95 355 96 44
1 57 -3 77 -24z m-563 -85 c44 -13 93 -52 113 -91 19 -36 19 -102 1 -137 -48
-91 -220 -172 -366 -172 -149 0 -240 122 -180 241 56 109 295 197 432 159z"/>
<path d="M1795 1425 c-43 -22 -65 -52 -65 -90 0 -48 27 -76 81 -82 108 -12
191 96 124 162 -29 30 -92 34 -140 10z m106 -25 c43 -23 11 -96 -49 -115 -30
-9 -80 12 -87 36 -8 24 5 46 41 70 32 21 66 24 95 9z"/>
<path d="M335 1007 c-40 -19 -63 -47 -71 -85 -5 -26 -1 -36 24 -62 50 -50 141
-38 191 26 27 35 27 66 -2 99 -27 33 -96 43 -142 22z m104 -38 c12 -12 21 -30
19 -41 -7 -49 -109 -81 -144 -46 -24 23 -10 65 29 88 41 26 68 25 96 -1z"/>
<path d="M678 1558 c4 -18 2 -20 -16 -16 -12 4 -22 2 -22 -3 0 -5 11 -9 25 -9
20 0 25 -5 25 -25 0 -14 4 -25 9 -25 5 0 7 9 4 20 -4 14 0 20 12 20 12 0 16
-6 12 -20 -3 -11 -1 -20 4 -20 5 0 9 11 9 25 0 20 -5 25 -25 25 -20 0 -25 5
-25 25 0 14 -4 25 -9 25 -5 0 -7 -10 -3 -22z"/>
<path d="M1060 1555 c0 -20 -5 -25 -27 -26 l-28 -1 25 -7 c14 -4 27 -4 28 1 2
4 16 9 30 9 24 2 24 2 5 6 -25 5 -31 28 -10 36 7 3 5 6 -5 6 -13 1 -18 -7 -18
-24z"/>
<path d="M1170 1556 c0 -21 6 -25 46 -31 25 -3 48 -4 52 -1 3 3 -7 6 -21 6
-22 0 -27 5 -27 25 0 14 -4 25 -9 25 -5 0 -7 -9 -4 -20 4 -14 0 -20 -12 -20
-12 0 -16 6 -12 20 3 11 1 20 -4 20 -5 0 -9 -11 -9 -24z"/>
<path d="M320 1538 c0 -4 11 -8 25 -8 20 0 25 -5 25 -25 0 -14 4 -25 9 -25 5
0 7 9 4 20 -4 14 0 20 12 20 12 0 16 -6 12 -20 -3 -11 -1 -20 4 -20 5 0 9 10
9 23 0 20 -7 25 -50 33 -27 6 -50 7 -50 2z"/>
<path d="M161 1513 c0 -11 3 -13 6 -5 8 20 31 14 36 -10 4 -20 4 -19 6 5 1 23
-3 27 -24 27 -17 0 -25 -5 -24 -17z"/>
<path d="M530 1345 c0 -20 5 -25 25 -25 14 0 25 4 25 9 0 5 -9 7 -20 4 -14 -4
-20 0 -20 12 0 12 6 16 20 12 11 -3 20 -1 20 4 0 5 -11 9 -25 9 -20 0 -25 -5
-25 -25z"/>
<path d="M640 1361 c0 -5 9 -7 20 -4 14 4 20 0 20 -10 0 -9 -10 -18 -22 -20
-20 -4 -19 -4 5 -6 23 -1 27 3 27 24 0 20 -5 25 -25 25 -14 0 -25 -4 -25 -9z"/>
<path d="M1760 991 c0 -5 9 -7 20 -4 14 4 20 0 20 -12 0 -12 -6 -16 -20 -12
-11 3 -20 1 -20 -4 0 -5 11 -9 25 -9 20 0 25 5 25 25 0 20 -5 25 -25 25 -14 0
-25 -4 -25 -9z"/>
<path d="M1970 975 c0 -20 5 -25 25 -25 20 0 25 5 25 25 0 20 -5 25 -25 25
-20 0 -25 -5 -25 -25z"/>
<path d="M1380 815 c0 -20 -5 -25 -25 -25 -14 0 -25 -4 -25 -9 0 -5 10 -7 22
-3 18 4 20 2 16 -16 -4 -12 -2 -22 3 -22 5 0 9 11 9 25 0 20 5 25 25 25 14 0
25 4 25 9 0 5 -10 7 -22 3 -18 -4 -20 -2 -16 16 4 12 2 22 -3 22 -5 0 -9 -11
-9 -25z"/>
<path d="M1191 800 c-19 -4 -14 -7 27 -16 29 -6 52 -7 52 -2 0 4 -11 8 -24 8
-13 0 -26 4 -28 8 -1 5 -14 6 -27 2z"/>
<path d="M1808 797 c-27 -6 -48 -14 -48 -18 0 -4 10 -5 22 -1 18 4 20 2 16
-16 -4 -12 -2 -22 3 -22 5 0 9 11 9 25 0 20 5 25 25 25 14 0 25 5 25 10 0 6
-1 9 -2 9 -2 -1 -24 -6 -50 -12z"/>
<path d="M1540 765 c0 -14 4 -25 9 -25 5 0 7 9 4 20 -4 14 0 20 12 20 12 0 16
-6 12 -20 -3 -11 -1 -20 4 -20 5 0 9 11 9 25 0 20 -5 25 -25 25 -20 0 -25 -5
-25 -25z"/>
<path d="M1970 765 c0 -14 4 -25 9 -25 5 0 7 9 4 20 -4 14 0 20 12 20 12 0 16
-6 12 -20 -3 -11 -1 -20 4 -20 5 0 9 11 9 25 0 20 -5 25 -25 25 -20 0 -25 -5
-25 -25z"/>
<path d="M668 623 c21 -8 14 -36 -8 -30 -11 3 -20 1 -20 -4 0 -5 11 -9 25 -9
20 0 25 5 25 25 0 17 -5 25 -17 24 -11 0 -13 -3 -5 -6z"/>
<path d="M850 621 c0 -5 9 -7 20 -4 14 4 20 0 20 -12 0 -12 -6 -16 -20 -12
-11 3 -20 1 -20 -4 0 -5 11 -9 25 -9 20 0 25 5 25 25 0 20 -5 25 -25 25 -14 0
-25 -4 -25 -9z"/>
<path d="M1060 605 c0 -21 4 -25 28 -24 23 2 24 2 5 6 -13 2 -23 11 -23 18 0
7 10 16 23 18 19 4 18 4 -5 6 -24 1 -28 -3 -28 -24z"/>
<path d="M1170 621 c0 -5 9 -7 20 -4 14 4 20 0 20 -12 0 -12 -6 -16 -20 -12
-11 3 -20 1 -20 -4 0 -5 11 -9 25 -9 20 0 25 5 25 25 0 20 -5 25 -25 25 -14 0
-25 -4 -25 -9z"/>
<path d="M1380 605 c0 -20 5 -25 25 -25 14 0 25 4 25 9 0 5 -9 7 -20 4 -14 -4
-20 0 -20 12 0 12 6 16 20 12 11 -3 20 -1 20 4 0 5 -11 9 -25 9 -20 0 -25 -5
-25 -25z"/>
<path d="M160 445 c0 -20 5 -25 25 -25 20 0 25 5 25 25 0 14 -4 25 -9 25 -5 0
-7 -9 -4 -20 4 -14 0 -20 -12 -20 -12 0 -16 6 -12 20 3 11 1 20 -4 20 -5 0 -9
-11 -9 -25z"/>
<path d="M370 445 c0 -20 -5 -25 -25 -25 -17 0 -25 -5 -24 -17 0 -11 3 -13 6
-5 8 21 36 14 30 -8 -3 -11 -1 -20 4 -20 5 0 9 11 9 25 0 20 5 25 25 25 20 0
25 5 25 25 0 14 -4 25 -9 25 -5 0 -7 -9 -4 -20 4 -14 0 -20 -12 -20 -12 0 -16
6 -12 20 3 11 1 20 -4 20 -5 0 -9 -11 -9 -25z"/>
<path d="M690 445 c0 -20 -5 -25 -25 -25 -14 0 -25 -4 -25 -9 0 -5 9 -7 19 -4
14 4 21 -1 24 -19 4 -21 4 -20 6 5 1 22 6 27 26 27 20 0 25 5 25 25 0 14 -4
25 -9 25 -5 0 -7 -9 -4 -20 4 -14 0 -20 -12 -20 -12 0 -16 6 -12 20 3 11 1 20
-4 20 -5 0 -9 -11 -9 -25z"/>
<path d="M1048 448 c4 -18 2 -20 -16 -16 -12 4 -22 2 -22 -3 0 -5 11 -9 25 -9
20 0 25 -5 25 -25 0 -17 5 -25 18 -24 10 0 12 3 5 6 -21 8 -15 31 10 36 19 4
18 4 -5 6 -23 1 -28 6 -28 26 0 14 -4 25 -9 25 -5 0 -7 -10 -3 -22z"/>
<path d="M1330 445 c0 -20 5 -25 25 -25 20 0 25 -5 25 -25 0 -14 4 -25 9 -25
5 0 7 9 4 20 -4 14 0 20 12 20 12 0 16 -6 12 -20 -3 -11 -1 -20 4 -20 5 0 9
11 9 24 0 21 -6 25 -46 31 -39 5 -45 9 -41 26 3 10 1 19 -4 19 -5 0 -9 -11 -9
-25z"/>
<path d="M1577 451 c4 -15 -1 -20 -19 -23 -14 -2 -1 -7 35 -14 31 -6 57 -7 57
-2 0 4 -13 8 -30 8 -25 0 -30 4 -30 25 0 14 -4 25 -9 25 -5 0 -7 -9 -4 -19z"/>
<path d="M1798 448 c4 -18 2 -20 -16 -16 -12 4 -22 3 -22 -2 0 -9 89 -24 98
-16 3 3 -7 6 -21 6 -22 0 -27 5 -27 25 0 14 -4 25 -9 25 -5 0 -7 -10 -3 -22z"/>
<path d="M1970 445 c0 -20 -5 -25 -27 -25 -14 0 -24 -3 -21 -6 4 -3 27 -2 52
1 40 6 46 10 46 31 0 13 -4 24 -9 24 -5 0 -7 -9 -4 -20 4 -14 0 -20 -12 -20
-12 0 -16 6 -12 20 3 11 1 20 -4 20 -5 0 -9 -11 -9 -25z"/>
<path d="M530 395 c0 -14 4 -25 9 -25 5 0 7 10 3 22 -4 18 -2 20 16 16 12 -4
22 -2 22 3 0 5 -11 9 -25 9 -20 0 -25 -5 -25 -25z"/>
<path d="M850 395 c0 -14 4 -25 9 -25 5 0 7 9 4 20 -4 14 0 20 12 20 12 0 16
-6 12 -20 -3 -11 -1 -20 4 -20 5 0 9 11 9 25 0 20 -5 25 -25 25 -20 0 -25 -5
-25 -25z"/>
<path d="M1170 395 c0 -14 4 -25 9 -25 5 0 7 9 4 20 -4 14 0 20 12 20 12 0 16
-6 12 -20 -3 -11 -1 -20 4 -20 5 0 9 11 9 25 0 20 -5 25 -25 25 -20 0 -25 -5
-25 -25z"/>
<path d="M160 235 c0 -20 5 -25 25 -25 20 0 25 5 25 25 0 20 -5 25 -25 25 -20
0 -25 -5 -25 -25z"/>
<path d="M370 235 c0 -20 5 -25 25 -25 20 0 25 5 25 25 0 20 -5 25 -25 25 -20
0 -25 -5 -25 -25z"/>
<path d="M690 235 c0 -20 5 -25 25 -25 20 0 25 5 25 25 0 20 -5 25 -25 25 -20
0 -25 -5 -25 -25z"/>
<path d="M1010 251 c0 -5 9 -7 20 -4 14 4 20 0 20 -12 0 -12 -6 -16 -20 -12
-11 3 -20 1 -20 -4 0 -5 11 -9 25 -9 20 0 25 5 25 25 0 20 -5 25 -25 25 -14 0
-25 -4 -25 -9z"/>
<path d="M1540 235 c0 -20 5 -25 25 -25 20 0 25 5 25 25 0 20 -5 25 -25 25
-20 0 -25 -5 -25 -25z"/>
<path d="M1760 251 c0 -5 9 -7 20 -4 14 4 20 0 20 -12 0 -12 -6 -16 -20 -12
-11 3 -20 1 -20 -4 0 -5 11 -9 25 -9 20 0 25 5 25 25 0 20 -5 25 -25 25 -14 0
-25 -4 -25 -9z"/>
<path d="M1380 76 c0 -13 -5 -27 -10 -29 -6 -3 -5 -4 2 -3 7 1 14 12 16 24 4
24 27 30 35 10 3 -8 6 -6 6 5 1 12 -7 17 -24 17 -20 0 -25 -5 -25 -24z"/>
</g>
</svg>
