<?xml version="1.0" standalone="no"?>
<!DOCTYPE svg PUBLIC "-//W3C//DTD SVG 20010904//EN"
 "http://www.w3.org/TR/2001/REC-SVG-20010904/DTD/svg10.dtd">
<svg version="1.0" xmlns="http://www.w3.org/2000/svg"
 width="225.000000pt" height="225.000000pt" viewBox="0 0 225.000000 225.000000"
 preserveAspectRatio="xMidYMid meet">
<metadata>
Created by potrace 1.10, written by Peter Selinger 2001-2011
</metadata>
<g transform="translate(0.000000,225.000000) scale(0.100000,-0.100000)"
fill="#000000" stroke="none">
<path d="M160 2236 c0 -3 69 -88 153 -189 273 -328 582 -708 592 -729 20 -44
-82 -86 -131 -53 -24 15 -114 148 -254 373 -35 56 -65 101 -66 99 -2 -2 53
-102 121 -223 69 -120 128 -229 131 -240 4 -15 -4 -36 -24 -63 -22 -31 -34
-64 -47 -133 -20 -109 -52 -177 -129 -273 -78 -97 -97 -141 -98 -217 0 -75 17
-124 71 -214 22 -36 42 -71 43 -76 5 -13 102 14 175 48 28 14 67 42 87 64 30
34 36 47 36 86 0 50 -13 66 -123 157 -33 27 -50 50 -57 78 -12 44 -8 59 45
186 14 34 30 97 35 140 12 93 25 109 99 123 91 17 143 59 154 126 5 28 -17 56
-356 430 -199 220 -383 424 -409 453 -27 29 -48 51 -48 47z m620 -1016 c9 -17
1 -28 -13 -17 -5 3 -31 -25 -50 -54 -10 -14 -21 -57 -26 -95 -5 -38 -18 -89
-29 -114 -75 -168 -69 -249 23 -319 118 -88 134 -136 68 -198 -41 -38 -120
-78 -175 -88 -35 -7 -36 -6 -74 57 -57 92 -64 113 -64 192 0 79 8 98 90 201
26 33 58 80 70 105 12 25 25 47 29 50 8 6 10 16 33 124 28 135 87 213 118 156z"/>
<path d="M472 627 c-18 -19 -20 -28 -12 -56 18 -65 58 -80 98 -38 28 29 28 57
1 91 -25 32 -59 33 -87 3z m68 -17 c25 -25 25 -32 2 -61 -24 -29 -57 -20 -49
13 4 12 1 28 -5 36 -9 10 -8 16 3 23 20 13 27 11 49 -11z"/>
<path d="M950 1727 c108 -26 178 -78 282 -211 98 -125 165 -193 219 -221 56
-29 164 -51 294 -60 133 -9 161 -22 220 -100 15 -19 15 -18 9 10 -11 48 -50
132 -85 181 l-33 45 -18 -49 c-23 -62 -52 -91 -76 -75 -11 7 -16 21 -14 39 12
113 12 144 3 162 -16 30 -124 79 -211 98 -54 12 -103 14 -174 10 l-99 -5 -60
60 c-78 76 -163 119 -248 125 l-64 4 55 -13z m656 -226 c33 -12 74 -35 92 -51
28 -25 32 -36 32 -77 0 -26 -6 -59 -13 -73 -11 -21 -19 -25 -57 -24 -59 1
-136 17 -183 37 -44 19 -187 162 -187 188 0 26 15 29 140 25 85 -3 131 -9 176
-25z m282 -234 c2 -11 -3 -17 -16 -17 -15 0 -19 5 -15 20 6 24 26 21 31 -3z"/>
<path d="M1792 1685 c-7 -14 -12 -46 -12 -70 0 -74 -3 -76 -70 -49 -88 35 -95
29 -15 -14 52 -27 75 -46 87 -72 20 -39 24 -124 8 -165 -5 -14 -6 -24 -1 -21
12 8 31 88 31 135 0 23 4 41 9 41 5 0 31 -20 59 -45 75 -68 75 -54 0 23 -36
37 -70 76 -76 87 -17 34 -23 99 -12 134 12 42 8 50 -8 16z"/>
<path d="M893 1623 c10 -120 64 -223 145 -274 44 -28 92 -39 92 -21 0 5 -13
33 -29 63 -16 30 -35 81 -41 114 -22 110 -56 151 -149 180 l-24 7 6 -69z m97
-23 c20 -22 34 -57 49 -122 12 -50 19 -93 17 -95 -2 -2 -19 9 -38 26 -49 42
-78 103 -95 194 -5 23 -2 27 17 27 13 0 35 -13 50 -30z"/>
<path d="M1410 1206 c0 -25 10 -63 26 -94 39 -78 115 -128 332 -217 187 -78
249 -127 275 -216 l13 -44 18 52 c22 66 23 187 1 239 -26 64 -64 111 -118 148
-70 48 -117 63 -287 92 -105 17 -161 32 -202 53 l-58 30 0 -43z m80 -33 c41
-4 138 -26 157 -35 11 -6 25 -8 30 -5 15 10 175 -33 224 -60 45 -24 119 -92
119 -109 0 -4 8 -16 17 -26 12 -13 18 -43 21 -103 3 -47 3 -85 0 -85 -2 0 -25
20 -51 44 -44 40 -143 95 -229 127 -21 7 -38 17 -38 21 0 4 -11 8 -25 8 -14 0
-25 5 -25 12 0 6 -3 8 -6 5 -13 -12 -127 57 -179 109 -50 49 -74 99 -51 107 6
2 13 1 16 -2 3 -3 12 -7 20 -8z"/>
<path d="M976 1129 c-30 -35 -34 -80 -9 -104 22 -23 104 -15 141 12 38 28 39
57 3 93 -42 43 -99 42 -135 -1z m109 5 c18 -18 7 -39 -26 -49 -22 -7 -59 11
-59 28 0 36 56 49 85 21z"/>
<path d="M1547 915 c4 -16 8 -55 8 -87 0 -47 -5 -64 -30 -99 -41 -58 -97 -84
-240 -112 -108 -22 -225 -60 -214 -71 2 -3 27 2 55 9 27 7 102 18 165 24 63 6
131 16 151 22 51 16 104 63 129 112 28 54 23 148 -10 198 l-23 34 9 -30z"/>
<path d="M1635 851 c-14 -82 8 -139 111 -296 42 -64 85 -138 95 -166 24 -63
24 -134 0 -182 -22 -43 -20 -44 25 -16 52 32 111 105 134 165 25 68 27 181 4
248 -21 62 -90 131 -184 185 -41 24 -97 56 -123 72 -27 16 -50 29 -52 29 -2 0
-6 -17 -10 -39z m67 -28 c2 -5 27 -19 56 -32 28 -14 52 -28 52 -33 0 -4 6 -8
13 -8 6 0 26 -14 44 -30 18 -17 35 -30 38 -30 13 0 55 -58 71 -97 28 -72 14
-211 -28 -278 -39 -60 -54 -58 -62 8 -9 68 -36 127 -118 252 -80 123 -94 150
-103 199 -6 28 -4 41 6 47 17 11 26 11 31 2z"/>
<path d="M1035 461 c-73 -21 -172 -72 -222 -116 l-37 -32 48 -6 c73 -10 124
-38 203 -110 83 -75 120 -89 176 -62 60 28 77 106 32 150 -30 31 -77 33 -105
5 -24 -24 -25 -43 -3 -61 15 -13 15 -12 4 8 -10 19 -8 26 9 43 26 26 46 25 75
-5 32 -31 32 -59 0 -90 -28 -29 -54 -31 -95 -10 -35 18 -50 43 -50 82 0 65 73
107 144 83 61 -20 93 -57 152 -171 64 -125 91 -150 169 -157 42 -3 61 1 101
22 27 15 40 24 29 20 -11 -4 -48 -9 -82 -12 -60 -4 -64 -3 -96 29 -30 30 -36
46 -51 129 -30 168 -81 236 -198 267 -68 17 -129 16 -203 -6z m235 -36 c65
-33 107 -90 125 -167 9 -39 13 -73 10 -76 -3 -3 -5 2 -5 12 0 9 -4 15 -9 12
-4 -3 -16 13 -26 35 -23 50 -81 103 -130 119 -86 28 -177 -13 -191 -86 -6 -34
-26 -37 -50 -8 -6 8 -39 27 -74 42 l-63 29 34 25 c81 61 173 89 274 85 42 -2
84 -11 105 -22z"/>
</g>
</svg>
